# Blender v3.2.0 OBJ File: 'pino2.blend'
# www.blender.org
mtllib pino2.mtl
o Circle
v 0.115584 -0.000000 -0.115584
v 0.163461 -0.000000 -0.000000
v 0.115584 -0.000000 0.115584
v 0.000000 -0.000000 0.163460
v -0.115584 -0.000000 0.115584
v -0.163460 -0.000000 -0.000000
v -0.115584 -0.000000 -0.115584
v -0.000000 -0.000000 -0.163461
v 0.000000 4.812428 -0.000000
v 0.259657 1.472479 -1.081815
v 0.948564 1.472479 -0.581354
v 1.081815 1.472479 0.259657
v 0.581354 1.472479 0.948564
v -0.259657 1.472479 1.081815
v -0.948564 1.472479 0.581353
v -1.081815 1.472479 -0.259657
v -0.581354 1.472479 -0.948564
v -0.000000 2.410201 -0.000000
v -0.000000 3.264668 -0.000000
v -0.465083 2.417573 -0.758851
v -0.865452 2.417573 -0.207726
v -0.758851 2.417573 0.465083
v -0.207726 2.417573 0.865452
v 0.465083 2.417573 0.758851
v 0.865452 2.417573 0.207726
v 0.758851 2.417573 -0.465083
v 0.207726 2.417573 -0.865452
v 0.148951 3.182575 -0.620579
v 0.544140 3.182575 -0.333491
v 0.620579 3.182575 0.148951
v 0.333491 3.182575 0.544140
v -0.148951 3.182575 0.620579
v -0.544140 3.182575 0.333491
v -0.620579 3.182575 -0.148951
v -0.333491 3.182575 -0.544140
v -0.000000 3.929035 -0.000000
v -0.000000 4.428818 -0.000000
v -0.224341 3.899376 -0.366045
v -0.417466 3.899376 -0.100200
v -0.366045 3.899376 0.224341
v -0.100200 3.899376 0.417466
v 0.224341 3.899376 0.366045
v 0.417466 3.899376 0.100200
v 0.366045 3.899376 -0.224341
v 0.100200 3.899376 -0.417466
v 0.063613 4.379106 -0.265031
v 0.232386 4.379106 -0.142424
v 0.265031 4.379106 0.063613
v 0.142424 4.379106 0.232386
v -0.063613 4.379106 0.265031
v -0.232386 4.379106 0.142424
v -0.265031 4.379106 -0.063613
v -0.142424 4.379106 -0.232386
v -0.000000 4.825151 -0.000000
vt 0.225875 0.025734
vt 0.201474 0.971098
vt 0.235982 0.025734
vt 0.225875 0.025734
vt 0.201474 0.025734
vt 0.177073 0.025734
vt 0.166966 0.025734
vt 0.177073 0.025734
vt 0.201474 0.025734
vt 0.994973 0.505489
vt 0.901914 0.730154
vt 0.677249 0.505489
vt 0.901914 0.280824
vt 0.677249 0.187765
vt 0.452584 0.280824
vt 0.359525 0.505489
vt 0.452584 0.730154
vt 0.677249 0.823213
vt 0.677249 0.505489
vt 0.901914 0.730154
vt 0.677249 0.823213
vt 0.452584 0.730154
vt 0.359525 0.505489
vt 0.452584 0.280824
vt 0.677249 0.187765
vt 0.901914 0.280824
vt 0.994973 0.505489
vt 0.994973 0.505489
vt 0.901914 0.730154
vt 0.677249 0.505489
vt 0.901914 0.280824
vt 0.677249 0.187765
vt 0.452584 0.280824
vt 0.359525 0.505489
vt 0.452584 0.730154
vt 0.677249 0.823213
vt 0.677249 0.505489
vt 0.901914 0.730154
vt 0.677249 0.823213
vt 0.452584 0.730154
vt 0.359525 0.505489
vt 0.452584 0.280824
vt 0.677249 0.187765
vt 0.901914 0.280824
vt 0.994973 0.505489
vt 0.994973 0.505489
vt 0.901914 0.730154
vt 0.677249 0.505489
vt 0.901914 0.280824
vt 0.677249 0.187765
vt 0.452584 0.280824
vt 0.359525 0.505489
vt 0.452584 0.730154
vt 0.677249 0.823213
vn 0.7067 0.0339 -0.7067
vn -0.0000 1.0000 0.0000
vn 0.9994 0.0339 0.0000
vn 0.7067 0.0339 0.7067
vn -0.0000 0.0339 0.9994
vn -0.7067 0.0339 0.7067
vn -0.9994 0.0339 -0.0000
vn -0.7067 0.0339 -0.7067
vn -0.0000 0.0339 -0.9994
vn 0.5495 0.7646 -0.3368
vn 0.1504 0.7646 -0.6267
vn 0.6267 0.7646 0.1504
vn 0.3368 0.7646 0.5495
vn -0.1504 0.7646 0.6267
vn -0.5495 0.7646 0.3368
vn -0.6267 0.7646 -0.1504
vn -0.3368 0.7646 -0.5495
vn 0.1609 0.7244 -0.6704
vn -0.3603 0.7244 -0.5878
vn -0.6704 0.7244 -0.1609
vn -0.5878 0.7244 0.3603
vn -0.1609 0.7244 0.6704
vn 0.3603 0.7244 0.5878
vn 0.6704 0.7244 0.1609
vn 0.5878 0.7244 -0.3603
vn 0.6480 0.6498 -0.3972
vn 0.1774 0.6498 -0.7391
vn 0.7391 0.6498 0.1774
vn 0.3972 0.6498 0.6480
vn -0.1774 0.6498 0.7391
vn -0.6480 0.6498 0.3972
vn -0.7391 0.6498 -0.1774
vn -0.3972 0.6498 -0.6480
vn 0.1813 0.6298 -0.7553
vn -0.4059 0.6298 -0.6622
vn -0.7553 0.6298 -0.1813
vn -0.6622 0.6298 0.4059
vn -0.1813 0.6298 0.7553
vn 0.4059 0.6298 0.6622
vn 0.7553 0.6298 0.1813
vn 0.6622 0.6298 -0.4059
vn 0.7275 0.5214 -0.4459
vn 0.1992 0.5214 -0.8297
vn 0.8297 0.5214 0.1992
vn 0.4459 0.5214 0.7275
vn -0.1992 0.5214 0.8297
vn -0.7275 0.5214 0.4459
vn -0.8297 0.5214 -0.1992
vn -0.4459 0.5214 -0.7275
usemtl Material
s 1
f 1/1/1 9/2/2 2/3/3
f 2/3/3 9/2/2 3/4/4
f 3/4/4 9/2/2 4/5/5
f 4/5/5 9/2/2 5/6/6
f 5/6/6 9/2/2 6/7/7
f 6/7/7 9/2/2 7/8/8
f 7/8/8 9/2/2 8/9/9
f 9/2/2 1/1/1 8/9/9
f 11/10/10 10/11/11 18/12/2
f 12/13/12 11/10/10 18/12/2
f 12/13/12 18/12/2 13/14/13
f 14/15/14 13/14/13 18/12/2
f 15/16/15 14/15/14 18/12/2
f 16/17/16 15/16/15 18/12/2
f 17/18/17 16/17/16 18/12/2
f 18/12/2 10/11/11 17/18/17
f 19/19/2 27/20/18 20/21/19
f 20/21/19 21/22/20 19/19/2
f 21/22/20 22/23/21 19/19/2
f 22/23/21 23/24/22 19/19/2
f 23/24/22 24/25/23 19/19/2
f 25/26/24 19/19/2 24/25/23
f 25/26/24 26/27/25 19/19/2
f 26/27/25 27/20/18 19/19/2
f 29/28/26 28/29/27 36/30/2
f 30/31/28 29/28/26 36/30/2
f 30/31/28 36/30/2 31/32/29
f 32/33/30 31/32/29 36/30/2
f 33/34/31 32/33/30 36/30/2
f 34/35/32 33/34/31 36/30/2
f 35/36/33 34/35/32 36/30/2
f 36/30/2 28/29/27 35/36/33
f 37/37/2 45/38/34 38/39/35
f 38/39/35 39/40/36 37/37/2
f 39/40/36 40/41/37 37/37/2
f 40/41/37 41/42/38 37/37/2
f 41/42/38 42/43/39 37/37/2
f 43/44/40 37/37/2 42/43/39
f 43/44/40 44/45/41 37/37/2
f 44/45/41 45/38/34 37/37/2
f 47/46/42 46/47/43 54/48/2
f 48/49/44 47/46/42 54/48/2
f 48/49/44 54/48/2 49/50/45
f 50/51/46 49/50/45 54/48/2
f 51/52/47 50/51/46 54/48/2
f 52/53/48 51/52/47 54/48/2
f 53/54/49 52/53/48 54/48/2
f 54/48/2 46/47/43 53/54/49
l 1 2
l 2 3
l 3 4
l 4 5
l 5 6
l 6 7
l 7 8
l 1 8
l 8 9
l 7 9
l 6 9
l 5 9
l 4 9
l 3 9
l 1 9
l 2 9
l 10 11
l 11 12
l 12 13
l 13 14
l 14 15
l 15 16
l 16 17
l 10 17
l 17 18
l 16 18
l 15 18
l 14 18
l 13 18
l 12 18
l 11 18
l 10 18
l 19 27
l 19 26
l 19 25
l 19 24
l 19 23
l 19 22
l 19 21
l 19 20
l 20 27
l 20 21
l 21 22
l 22 23
l 23 24
l 24 25
l 25 26
l 26 27
l 28 29
l 29 30
l 30 31
l 31 32
l 32 33
l 33 34
l 34 35
l 28 35
l 35 36
l 34 36
l 33 36
l 32 36
l 31 36
l 30 36
l 29 36
l 28 36
l 37 45
l 37 44
l 37 43
l 37 42
l 37 41
l 37 40
l 37 39
l 37 38
l 38 45
l 38 39
l 39 40
l 40 41
l 41 42
l 42 43
l 43 44
l 44 45
l 46 47
l 47 48
l 48 49
l 49 50
l 50 51
l 51 52
l 52 53
l 46 53
l 53 54
l 52 54
l 51 54
l 50 54
l 49 54
l 48 54
l 47 54
l 46 54
