# Blender v3.2.0 OBJ File: 'tree_stump.blend'
# www.blender.org
mtllib tree_stump.mtl
o Plane
v -0.128052 0.522365 -0.401807
v -0.408748 0.522365 -0.114169
v -0.300000 0.522365 -0.300000
v 0.001521 0.522365 -0.334707
v 0.073248 0.522365 -0.406435
v 0.290437 0.522365 -0.260925
v 0.306623 0.522365 -0.091344
v 0.416357 0.522365 0.074056
v 0.274548 0.522365 0.084090
v 0.378669 0.522365 0.137307
v 0.404121 0.522365 0.246056
v 0.262979 0.522365 0.426532
v 0.043169 0.522365 0.475121
v -0.005421 0.522365 0.317783
v -0.141492 0.522365 0.437584
v -0.308528 0.522365 0.384883
v -0.398766 0.522365 0.229859
v -0.408021 0.522365 -0.033914
v -0.250683 0.522365 -0.050110
v -0.146907 0.228019 -0.497738
v -0.376511 0.219279 -0.307902
v -0.454298 0.240768 -0.165560
v -0.001519 0.240768 -0.413208
v 0.144069 0.227615 -0.516834
v 0.403559 0.240768 -0.385271
v 0.418446 0.279610 -0.170382
v 0.527260 0.254689 0.054878
v 0.328130 0.240768 0.092441
v 0.451572 0.229418 0.190192
v 0.383727 0.230975 0.385503
v 0.291589 0.232056 0.452779
v 0.048766 0.240768 0.564567
v -0.009900 0.240768 0.374599
v -0.216387 0.240768 0.531153
v -0.375868 0.240768 0.455615
v -0.458211 0.240768 0.303032
v -0.495994 0.240768 -0.050034
v -0.282079 0.240768 -0.090877
v -0.515591 0.000539 -0.399868
v -0.060863 0.000539 -0.614211
v -0.743211 0.000539 -0.176849
v -0.006254 0.000539 -0.535470
v 0.103516 0.000539 -0.645241
v 0.624719 0.000539 -0.598083
v 0.515302 0.000539 -0.140770
v 0.778965 0.000539 0.179699
v 0.411582 0.000539 0.105449
v 0.723146 0.000539 0.230985
v 0.536209 0.000539 0.377937
v 0.393877 0.000539 0.629515
v 0.057484 0.000539 0.703875
v -0.016877 0.000539 0.463088
v -0.263720 0.000539 0.595901
v -0.627094 0.000539 0.603029
v -0.492881 0.000539 0.379846
v -0.633009 0.000539 -0.075142
v -0.392222 0.000539 -0.099929
v 0.178164 0.522365 -0.215968
v 0.197147 0.187472 -0.380302
v 0.360439 0.000539 -0.503950
v -0.128052 0.522365 -0.401807
v -0.300000 0.522365 -0.300000
v -0.408748 0.522365 -0.114169
v 0.001521 0.522365 -0.334707
v 0.073248 0.522365 -0.406435
v 0.290437 0.522365 -0.260925
v 0.306623 0.522365 -0.091344
v 0.416357 0.522365 0.074056
v 0.274548 0.522365 0.084090
v 0.378669 0.522365 0.137307
v 0.404121 0.522365 0.246056
v 0.262979 0.522365 0.426532
v 0.043169 0.522365 0.475121
v -0.005421 0.522365 0.317783
v -0.141492 0.522365 0.437584
v -0.308528 0.522365 0.384883
v -0.398766 0.522365 0.229859
v -0.408021 0.522365 -0.033914
v -0.250683 0.522365 -0.050110
v 0.178164 0.522365 -0.215968
vt 0.463323 0.414133
vt 0.606501 0.559887
vt 0.357923 0.467302
vt 0.793608 0.596161
vt 0.806747 0.746373
vt 0.574395 0.444973
vt 0.689752 0.490501
vt 0.699290 0.408275
vt 0.620928 0.222228
vt 0.751779 0.260013
vt 0.853542 0.327447
vt 0.770546 0.468892
vt 0.620438 0.377424
vt 0.568605 0.232751
vt 0.516677 0.367198
vt 0.558467 0.381409
vt 0.381640 0.382068
vt 0.281550 0.302007
vt 0.349406 0.214083
vt 0.257798 0.473085
vt 0.328092 0.431214
vt 0.140477 0.478472
vt 0.242785 0.539438
vt 0.788501 0.491418
vt 0.902942 0.437656
vt 0.816284 0.541402
vt 0.757293 0.452901
vt 0.873923 0.366451
vt 0.678159 0.391764
vt 0.806334 0.307790
vt 0.607207 0.212265
vt 0.588010 0.366463
vt 0.524608 0.235114
vt 0.518918 0.378941
vt 0.443699 0.360032
vt 0.369704 0.365122
vt 0.419196 0.202313
vt 0.262908 0.247737
vt 0.299433 0.399101
vt 0.125206 0.349637
vt 0.207454 0.472914
vt 0.076035 0.449602
vt 0.171000 0.541402
vt 0.902146 0.423569
vt 0.818771 0.539438
vt 0.820488 0.130385
vt 0.575974 0.095028
vt 0.612563 0.077713
vt 0.518295 0.212051
vt 0.195681 0.197960
vt 0.308117 0.017182
vt 0.151929 0.382477
vt 0.047561 0.431365
vt 0.988118 0.357195
vt 0.869048 0.179322
vt 0.766805 0.104871
vt 0.726233 0.247573
vt 0.627011 0.069755
vt 0.529574 0.108471
vt 0.337064 0.204783
vt 0.418408 0.072921
vt 0.230999 0.118847
vt 0.051912 0.232860
vt 0.009158 0.342662
vt 0.978849 0.320987
vt 0.421013 0.245353
vt 0.430362 0.397945
vt 0.401762 0.084473
vt 0.518887 0.064310
vt 0.376273 0.922406
vt 0.516334 0.920253
vt 0.390120 0.987713
vt 0.562157 0.985334
vt 0.631920 0.897569
vt 0.677152 0.789263
vt 0.751800 0.845668
vt 0.753693 0.797248
vt 0.339202 0.674902
vt 0.222350 0.795095
vt 0.280708 0.912950
vt 0.948792 0.140405
vt 0.038716 0.250762
vt 0.961816 0.193719
vt 0.282501 0.009545
vt 0.258196 0.609526
vt 0.229006 0.653548
vn 0.0000 1.0000 0.0000
vn -0.7013 0.2398 -0.6713
vn -0.0713 0.3868 -0.9194
vn -0.6817 0.4337 -0.5893
vn -0.8390 0.4021 0.3666
vn -0.9037 0.0779 0.4211
vn -0.0037 0.3040 -0.9527
vn -0.0602 0.3358 -0.9400
vn 0.0951 0.3751 -0.9221
vn -0.1380 0.2673 -0.9537
vn 0.4072 0.5765 -0.7084
vn 0.8934 0.3720 -0.2520
vn 0.4848 0.6079 -0.6288
vn 0.7343 0.3823 0.5609
vn 0.8218 0.4790 -0.3085
vn 0.9551 0.1800 0.2352
vn 0.9631 0.1889 0.1916
vn 0.7533 0.1195 -0.6468
vn 0.9580 0.2041 0.2012
vn 0.8800 0.3269 -0.3446
vn 0.5317 0.2224 0.8172
vn 0.7580 0.3859 0.5259
vn -0.4502 0.3314 0.8291
vn -0.5588 0.2409 0.7935
vn -0.2905 0.2444 0.9251
vn -0.2491 0.1954 0.9486
vn 0.2812 0.2571 0.9246
vn -0.6041 0.3469 0.7174
vn 0.0871 0.2786 0.9564
vn -0.9031 0.2884 0.3181
vn -0.9228 0.2841 0.2603
vn -0.7104 0.3396 -0.6164
vn -0.6854 0.2809 -0.6718
vn -0.9752 0.2120 -0.0636
vn -0.9685 0.1380 -0.2071
vn -0.5372 0.5764 -0.6158
vn 0.0475 0.5904 -0.8057
vn 0.2725 0.5182 -0.8107
vn 0.2402 0.5718 -0.7844
vn 0.8680 0.4254 -0.2561
vn 0.4211 0.7870 -0.4508
vn 0.7921 0.4403 0.4228
vn 0.6472 0.7355 0.2006
vn 0.6621 0.5793 0.4754
vn 0.4300 0.6242 0.6523
vn 0.4470 0.3969 0.8016
vn -0.3217 0.5317 0.7835
vn -0.3805 0.2738 0.8833
vn -0.6266 0.4174 0.6581
vn 0.1267 0.3428 0.9308
vn -0.9197 0.3927 -0.0042
vn -0.7768 0.4063 -0.4811
vn -0.7816 0.6205 -0.0640
vn 0.4931 0.5757 -0.6522
vn 0.2743 0.4361 -0.8571
vn 0.0571 0.5392 -0.8402
vn -0.1427 0.5064 -0.8504
vn -0.6372 0.7604 0.1258
vn 0.5830 0.7410 0.3331
vn 0.6476 0.7608 -0.0422
vn -0.5502 0.7715 0.3195
usemtl Stump
s off
f 16/1/1 14/2/1 17/3/1
f 14/2/1 12/4/1 11/5/1
f 16/1/1 15/6/1 14/2/1
f 14/2/1 13/7/1 12/4/1
s 1
f 62/8/2 20/9/3 21/10/4
f 62/8/2 22/11/5 63/12/6
f 61/13/7 23/14/8 20/9/3
f 65/15/9 23/14/8 64/16/10
f 66/17/11 26/18/12 25/19/13
f 68/20/14 26/18/12 67/21/15
f 28/22/16 68/20/14 69/23/17
f 70/24/18 28/25/16 69/26/17
f 71/27/19 29/28/20 70/24/18
f 72/29/21 30/30/22 71/27/19
f 32/31/23 72/29/21 73/32/24
f 33/33/25 73/32/24 74/34/26
f 75/35/27 33/33/25 74/34/26
f 76/36/28 34/37/29 75/35/27
f 36/38/30 76/36/28 77/39/31
f 37/40/32 77/39/31 78/41/33
f 38/42/34 78/41/33 79/43/35
f 63/12/6 38/44/34 79/45/35
f 20/9/3 39/46/36 21/10/4
f 39/46/36 22/11/5 21/10/4
f 20/9/3 42/47/37 40/48/38
f 24/49/39 42/47/37 23/14/8
f 25/19/13 45/50/40 44/51/41
f 27/52/42 45/50/40 26/18/12
f 47/53/43 27/52/42 28/22/16
f 29/28/20 47/54/43 28/25/16
f 49/55/44 29/28/20 30/30/22
f 50/56/45 30/30/22 31/57/46
f 51/58/47 31/57/46 32/31/23
f 52/59/48 32/31/23 33/33/25
f 34/37/29 52/59/48 33/33/25
f 35/60/49 53/61/50 34/37/29
f 55/62/51 35/60/49 36/38/30
f 56/63/52 36/38/30 37/40/32
f 57/64/53 37/40/32 38/42/34
f 22/11/5 57/65/53 38/44/34
f 65/15/9 59/66/54 24/49/39
f 66/17/11 59/66/54 80/67/55
f 24/49/39 60/68/56 43/69/57
f 25/19/13 60/68/56 59/66/54
f 4/70/1 58/71/1 5/72/1
f 6/73/1 58/71/1 7/74/1
f 7/74/1 9/75/1 8/76/1
f 9/75/1 11/5/1 10/77/1
f 19/78/1 17/3/1 14/2/1
f 3/79/1 19/78/1 1/80/1
f 7/74/1 58/71/1 9/75/1
f 1/80/1 19/78/1 4/70/1
f 4/70/1 19/78/1 58/71/1
f 9/75/1 19/78/1 14/2/1
f 9/75/1 58/71/1 19/78/1
f 62/8/2 61/13/7 20/9/3
f 62/8/2 21/10/4 22/11/5
f 61/13/7 64/16/10 23/14/8
f 65/15/9 24/49/39 23/14/8
f 66/17/11 67/21/15 26/18/12
f 68/20/14 27/52/42 26/18/12
f 28/22/16 27/52/42 68/20/14
f 70/24/18 29/28/20 28/25/16
f 71/27/19 30/30/22 29/28/20
f 72/29/21 31/57/46 30/30/22
f 32/31/23 31/57/46 72/29/21
f 33/33/25 32/31/23 73/32/24
f 75/35/27 34/37/29 33/33/25
f 76/36/28 35/60/49 34/37/29
f 36/38/30 35/60/49 76/36/28
f 37/40/32 36/38/30 77/39/31
f 38/42/34 37/40/32 78/41/33
f 63/12/6 22/11/5 38/44/34
f 20/9/3 40/48/38 39/46/36
f 39/46/36 41/81/58 22/11/5
f 20/9/3 23/14/8 42/47/37
f 24/49/39 43/69/57 42/47/37
f 25/19/13 26/18/12 45/50/40
f 27/52/42 46/82/59 45/50/40
f 47/53/43 46/82/59 27/52/42
f 29/28/20 48/83/60 47/54/43
f 49/55/44 48/83/60 29/28/20
f 50/56/45 49/55/44 30/30/22
f 51/58/47 50/56/45 31/57/46
f 52/59/48 51/58/47 32/31/23
f 34/37/29 53/61/50 52/59/48
f 35/60/49 54/84/61 53/61/50
f 55/62/51 54/84/61 35/60/49
f 56/63/52 55/62/51 36/38/30
f 57/64/53 56/63/52 37/40/32
f 22/11/5 41/81/58 57/65/53
f 65/15/9 80/67/55 59/66/54
f 66/17/11 25/19/13 59/66/54
f 24/49/39 59/66/54 60/68/56
f 25/19/13 44/51/41 60/68/56
f 9/75/1 14/2/1 11/5/1
f 19/78/1 18/85/1 17/3/1
f 3/79/1 2/86/1 19/78/1
o Hatchet_Cylinder.002
v -0.423990 0.827836 0.135339
v -0.278192 0.872332 0.064582
v -0.166978 0.718609 0.031314
v -0.353234 0.619996 0.126314
v -0.396720 0.834498 0.195721
v -0.250921 0.878994 0.124964
v -0.139708 0.725271 0.091696
v -0.325963 0.626658 0.186696
v 0.087084 0.993160 -0.121246
v 0.092066 1.023672 -0.082621
v 0.119943 1.001188 -0.048489
v 0.142838 0.948191 -0.052982
v 0.137855 0.917680 -0.091606
v 0.109978 0.940164 -0.125738
v -0.232273 0.811319 0.054160
v -0.233225 0.832727 0.085360
v -0.207665 0.817331 0.108646
v -0.181152 0.780526 0.100733
v -0.180199 0.759118 0.069533
v -0.205760 0.774514 0.046246
v 0.352945 1.043829 -0.246908
v 0.374531 1.019364 -0.209717
v 0.385804 1.051856 -0.174152
v 0.375492 1.108812 -0.175778
v 0.353906 1.133276 -0.212970
v 0.342633 1.100785 -0.248535
v -0.305665 0.537972 0.187313
v -0.077849 0.692948 0.067325
v -0.332935 0.531310 0.126931
v -0.105119 0.686286 0.006943
v -0.251409 0.536498 0.162972
v -0.205299 0.548679 0.140803
v -0.163629 0.568304 0.119818
v -0.129360 0.600338 0.100807
v -0.099532 0.639816 0.082980
v -0.278680 0.529836 0.102590
v -0.232569 0.542017 0.080421
v -0.190899 0.561642 0.059436
v -0.156631 0.593676 0.040425
v -0.126803 0.633154 0.022598
v -0.309498 0.381637 0.169576
v 0.002909 0.668239 -0.003139
v -0.227837 0.391606 0.131596
v -0.160976 0.420477 0.098213
v -0.102184 0.459656 0.067338
v -0.019566 0.582673 0.016452
v -0.056841 0.516011 0.040642
v 0.430242 1.134404 -0.304273
v 0.444691 1.176047 -0.258690
v 0.472357 1.144692 -0.211023
v 0.485573 1.071694 -0.208939
v 0.471125 1.030051 -0.254521
v 0.443459 1.061406 -0.302188
v -0.278192 0.872332 0.064582
v -0.278192 0.872332 0.064582
v -0.166978 0.718609 0.031314
v -0.423990 0.827836 0.135339
v -0.423990 0.827836 0.135339
v -0.353234 0.619996 0.126314
v -0.396720 0.834498 0.195721
v -0.396720 0.834498 0.195721
v -0.250921 0.878994 0.124964
v -0.250921 0.878994 0.124964
v -0.139708 0.725271 0.091696
v -0.325963 0.626658 0.186696
v -0.232273 0.811319 0.054160
v -0.233225 0.832727 0.085360
v -0.207665 0.817331 0.108646
v -0.181152 0.780526 0.100733
v -0.180199 0.759118 0.069533
v -0.205760 0.774514 0.046246
v -0.332935 0.531310 0.126931
v -0.305665 0.537972 0.187313
v -0.077849 0.692948 0.067325
v -0.105119 0.686286 0.006943
v -0.309498 0.381637 0.169576
v -0.309498 0.381637 0.169576
v 0.002909 0.668239 -0.003139
v 0.002909 0.668239 -0.003139
v -0.227837 0.391606 0.131596
v -0.160976 0.420477 0.098213
v -0.102184 0.459656 0.067338
v -0.019566 0.582673 0.016452
v -0.056841 0.516011 0.040642
v 0.430242 1.134404 -0.304273
v 0.444691 1.176047 -0.258690
v 0.472357 1.144692 -0.211023
v 0.485573 1.071694 -0.208939
v 0.471125 1.030051 -0.254521
v 0.443459 1.061406 -0.302188
vt 0.956029 0.186492
vt 0.554080 0.250463
vt 0.553643 0.188990
vt 0.955991 0.314772
vt 0.553606 0.311936
vt 0.946413 0.377181
vt 0.553905 0.380649
vt 0.940871 0.437604
vt 0.554172 0.441777
vt 0.940981 0.063648
vt 0.553982 0.120276
vt 0.554286 0.059149
vt 0.946487 0.124075
vt 0.246935 0.114296
vt 0.258052 0.053394
vt 0.257933 0.447280
vt 0.246853 0.386368
vt 0.232601 0.313669
vt 0.226152 0.250323
vt 0.232640 0.186983
vt 0.118199 0.173994
vt 0.118152 0.326559
vt 0.109673 0.250272
vt 0.136722 0.412980
vt 0.154343 0.485367
vt 0.154486 0.015218
vt 0.136822 0.087590
vt 0.058695 0.298702
vt 0.136722 0.412980
vt 0.095837 0.471546
vt 0.036380 0.443689
vt 0.962111 0.250634
vt 0.118152 0.326559
vt 0.017810 0.357267
vt 0.468186 0.728126
vt 0.256273 0.589771
vt 0.465154 0.579084
vt 0.741669 0.585985
vt 0.527062 0.727788
vt 0.528536 0.578775
vt 0.528536 0.578775
vt 0.468186 0.728126
vt 0.465154 0.579084
vt 0.530417 0.515373
vt 0.741669 0.585985
vt 0.528536 0.578775
vt 0.829875 0.520634
vt 0.830294 0.584237
vt 0.518754 0.867519
vt 0.478774 0.921083
vt 0.478325 0.867997
vt 0.837509 0.737042
vt 0.700038 0.805704
vt 0.830294 0.584237
vt 0.844794 0.639156
vt 0.788935 0.822085
vt 0.746144 0.859249
vt 0.845039 0.689368
vt 0.817142 0.780777
vt 0.159288 0.736223
vt 0.295369 0.806306
vt 0.248658 0.859129
vt 0.206500 0.821499
vt 0.153956 0.638844
vt 0.169784 0.584605
vt 0.178959 0.779982
vt 0.152661 0.688703
vt 0.977182 0.552529
vt 0.519202 0.920605
vt 0.499625 0.996118
vt 0.977182 0.552529
vt 0.988179 0.638631
vt 0.978421 0.714656
vt 0.957406 0.785305
vt 0.917647 0.847321
vt 0.866507 0.904333
vt 0.794602 0.952337
vt 0.023978 0.550209
vt 0.011335 0.635613
vt 0.019576 0.711478
vt 0.077882 0.844737
vt 0.039253 0.782247
vt 0.128014 0.902330
vt 0.515738 0.793414
vt 0.527062 0.727788
vt 0.498368 0.839937
vt 0.513154 0.825915
vt 0.497929 0.775280
vt 0.483394 0.826321
vt 0.468186 0.728126
vt 0.480310 0.793176
vt 0.527062 0.727788
vt 0.742291 0.521076
vt 0.199002 0.951228
vn -0.5914 0.3349 -0.7335
vn -0.4122 0.9070 0.0861
vn -0.5603 0.3312 -0.7592
vn 0.1243 0.5098 0.8513
vn 0.1644 0.5083 0.8454
vn 0.5280 -0.2859 0.7997
vn 0.5336 -0.3228 0.7817
vn 0.4078 -0.9092 -0.0838
vn 0.3885 -0.9185 -0.0741
vn -0.1995 -0.5019 -0.8416
vn -0.2197 -0.4686 -0.8557
vn -0.2865 -0.5211 -0.8040
vn 0.2550 -0.9669 -0.0085
vn 0.4495 -0.3413 0.8255
vn 0.1540 0.5170 0.8420
vn -0.3781 0.9232 0.0689
vn -0.5654 0.3413 -0.7509
vn -0.5949 0.3533 -0.7220
vn 0.1119 0.5260 0.8431
vn -0.3932 0.9163 0.0765
vn 0.3698 -0.3520 0.8599
vn 0.1324 -0.9900 0.0494
vn -0.3641 -0.5312 -0.7650
vn 0.8947 0.1500 -0.4206
vn -0.4600 0.8810 0.1106
vn -0.4095 -0.1000 -0.9068
vn 0.4095 0.1000 0.9068
vn -0.2822 0.9591 0.0216
vn -0.8536 -0.3088 0.4196
vn -0.8705 -0.2546 0.4212
vn -0.8999 -0.1189 0.4196
vn 0.5509 0.7653 -0.3329
vn 0.2688 0.9366 -0.2247
vn 0.5507 0.7652 -0.3334
vn 0.4787 -0.0127 0.8779
vn 0.4094 0.0024 0.9124
vn 0.4244 -0.0172 0.9053
vn 0.5230 0.0195 0.8521
vn 0.5387 0.0382 0.8416
vn 0.4476 -0.0146 0.8941
vn 0.4983 -0.0011 0.8670
vn -0.3329 -0.2110 -0.9191
vn -0.2702 -0.1594 -0.9495
vn -0.2869 -0.1783 -0.9412
vn -0.3889 -0.2159 -0.8956
vn -0.4058 -0.1967 -0.8926
vn -0.3127 -0.1992 -0.9287
vn -0.3654 -0.2132 -0.9061
vn -0.9101 -0.0246 0.4137
vn 0.1465 0.9739 -0.1736
vn 0.4243 -0.1209 0.8974
vn 0.4544 -0.1216 0.8825
vn 0.4989 -0.1177 0.8586
vn 0.5453 -0.0939 0.8329
vn 0.5861 -0.0718 0.8070
vn 0.6307 -0.0340 0.7753
vn 0.6574 -0.0002 0.7535
vn -0.3747 -0.3161 -0.8716
vn -0.3435 -0.3165 -0.8842
vn -0.2965 -0.3121 -0.9026
vn -0.2040 -0.2648 -0.9425
vn -0.2486 -0.2879 -0.9248
vn -0.1539 -0.2256 -0.9620
vn 0.7234 0.5985 -0.3443
vn 0.7054 0.5974 -0.3816
vn 0.7070 0.5934 -0.3848
vn 0.7010 0.5911 -0.3991
vn 0.7047 0.5965 -0.3841
vn 0.7138 0.5942 -0.3706
vn 0.7032 0.5968 -0.3864
vn 0.6874 0.5897 -0.4240
vn -0.1228 -0.1907 -0.9739
usemtl Dull
s 1
f 146/87/62 90/88/63 89/89/64
f 90/88/63 148/90/65 91/91/66
f 91/91/66 149/92/67 92/93/68
f 92/93/68 150/94/69 93/95/70
f 150/96/69 94/97/71 93/98/70
f 89/89/64 151/99/72 146/87/62
f 89/89/64 101/100/73 94/97/71
f 94/97/71 102/101/74 93/98/70
f 92/93/68 102/102/74 103/103/75
f 91/91/66 103/103/75 104/104/76
f 90/88/63 104/104/76 105/105/77
f 90/88/63 106/106/78 89/89/64
f 105/105/77 165/107/79 106/106/78
f 105/105/77 167/108/80 166/109/81
f 104/104/76 168/110/82 167/108/80
f 103/103/75 169/111/83 168/110/82
f 101/100/73 169/112/83 102/101/74
f 106/106/78 170/113/84 101/100/73
f 129/114/85 131/115/85 132/116/85
f 133/117/85 129/114/85 132/116/85
f 146/87/62 147/118/86 90/88/63
f 90/88/63 147/118/86 148/90/65
f 91/91/66 148/90/65 149/92/67
f 92/93/68 149/92/67 150/94/69
f 150/96/69 151/99/72 94/97/71
f 89/89/64 94/97/71 151/99/72
f 89/89/64 106/106/78 101/100/73
f 94/97/71 101/100/73 102/101/74
f 92/93/68 93/95/70 102/102/74
f 91/91/66 92/93/68 103/103/75
f 90/88/63 91/91/66 104/104/76
f 90/88/63 105/105/77 106/106/78
f 105/105/77 166/109/81 165/107/79
f 105/105/77 104/104/76 167/108/80
f 104/104/76 103/103/75 168/110/82
f 103/103/75 102/102/74 169/111/83
f 101/100/73 170/113/84 169/112/83
f 106/106/78 165/107/79 170/113/84
f 129/114/85 130/119/85 131/115/85
f 133/117/85 128/120/85 129/114/85
usemtl Shiny
f 134/121/87 139/122/87 137/123/87
f 145/124/88 142/125/88 140/126/88
f 141/127/89 135/128/89 138/129/89
f 81/130/90 88/131/91 85/132/90
f 88/131/91 152/133/92 153/134/92
f 87/135/93 155/136/94 83/137/95
f 113/138/96 144/139/88 145/124/88
f 107/140/97 111/141/98 145/124/88
f 115/142/99 108/143/100 144/139/88
f 111/141/98 112/144/101 145/124/88
f 114/145/102 115/142/99 144/139/88
f 112/144/101 113/138/96 145/124/88
f 113/138/96 114/145/102 144/139/88
f 118/146/103 139/122/87 136/147/87
f 110/148/104 120/149/105 136/147/87
f 116/150/106 109/151/107 139/122/87
f 120/149/105 119/152/108 136/147/87
f 117/153/109 116/150/106 139/122/87
f 119/152/108 118/146/103 136/147/87
f 118/146/103 117/153/109 139/122/87
f 153/134/92 152/133/92 156/154/110
f 155/136/94 154/155/94 158/156/111
f 111/141/98 157/157/112 160/158/113
f 112/144/101 160/158/113 161/159/114
f 113/138/96 161/159/114 162/160/115
f 113/138/96 127/161/116 114/145/102
f 115/142/99 127/161/116 163/162/117
f 108/143/100 163/162/117 159/163/118
f 116/150/106 121/164/119 109/151/107
f 117/153/109 123/165/120 116/150/106
f 118/146/103 124/166/121 117/153/109
f 118/146/103 164/167/122 125/168/123
f 120/149/105 164/167/122 119/152/108
f 110/148/104 126/169/124 120/149/105
f 87/135/93 97/170/125 86/171/126
f 87/135/93 99/172/127 98/173/128
f 86/171/126 97/170/125 96/174/129
f 83/137/95 100/175/130 99/172/127
f 82/176/131 96/174/129 95/177/132
f 95/177/132 83/137/95 82/176/131
f 83/137/95 99/172/127 87/135/93
f 82/176/131 86/171/126 96/174/129
f 134/121/87 136/147/87 139/122/87
f 145/124/88 144/139/88 142/125/88
f 141/127/89 143/178/89 135/128/89
f 81/130/90 84/179/91 88/131/91
f 88/131/91 84/179/91 152/133/92
f 87/135/93 154/155/94 155/136/94
f 111/141/98 107/140/97 157/157/112
f 112/144/101 111/141/98 160/158/113
f 113/138/96 112/144/101 161/159/114
f 113/138/96 162/160/115 127/161/116
f 115/142/99 114/145/102 127/161/116
f 108/143/100 115/142/99 163/162/117
f 116/150/106 123/165/120 121/164/119
f 117/153/109 124/166/121 123/165/120
f 118/146/103 125/168/123 124/166/121
f 118/146/103 119/152/108 164/167/122
f 120/149/105 126/169/124 164/167/122
f 110/148/104 122/180/133 126/169/124
f 87/135/93 98/173/128 97/170/125
f 95/177/132 100/175/130 83/137/95
