# Blender v3.2.0 OBJ File: 'plowed_tiles.blend'
# www.blender.org
mtllib plowed_tiles.mtl
o PlowedRowEnd.002_Plane.011
v 0.500000 0.000000 1.300000
v 0.500000 0.000000 0.500000
v 1.500000 0.000000 0.500000
v 1.500000 0.000000 1.300000
v 0.750000 0.200000 0.500000
v 1.000000 0.000000 0.500000
v 1.250000 0.200000 0.500000
v 0.750000 0.200000 1.100000
v 1.000000 0.000000 1.333515
v 1.250000 0.200000 1.100000
v 0.757182 0.000000 1.478455
v 1.250000 0.000000 1.418608
v 0.542637 0.000000 1.402575
v 0.666667 0.000000 1.433333
v 0.916667 0.000000 1.366667
v 0.857272 0.000000 1.454878
v 1.052213 0.000000 1.395393
v 1.166667 0.000000 1.433334
v 1.428636 0.000000 1.369061
v 1.347696 0.000000 1.421364
v 1.000000 0.000000 0.500000
v 1.000000 0.000000 1.333515
vt 0.250000 0.386788
vt 0.000000 1.000000
vt 0.000000 0.182385
vt 0.500000 1.000000
vt 0.250000 1.000000
vt 0.750000 0.386788
vt 0.500000 1.000000
vt 0.500000 0.148132
vt 1.000000 1.000000
vt 0.750000 1.000000
vt 0.042637 0.077551
vt 0.166667 0.046115
vt 0.257182 0.000000
vt 0.357272 0.024096
vt 0.416667 0.114250
vt 0.500000 0.148132
vt 0.552213 0.084891
vt 0.666666 0.046115
vt 0.750000 0.061165
vt 0.847696 0.058348
vt 0.928636 0.111803
vt 1.000000 0.182384
vn 0.0015 0.9914 0.1308
vn -0.6247 0.7809 0.0000
vn -0.5508 0.8236 0.1351
vn 0.6247 0.7809 0.0000
vn -0.0000 1.0000 0.0000
vn 0.0033 0.9899 0.1420
vn -0.4836 0.8497 0.2100
vn -0.3056 0.8772 0.3704
vn -0.1780 0.8628 0.4732
vn -0.0447 0.8829 0.4674
vn 0.2573 0.8730 0.4143
vn 0.3496 0.8412 0.4124
vn 0.4103 0.8616 0.2987
vn -0.2746 0.8715 0.4062
vn -0.0466 0.8617 0.5053
vn 0.0414 0.8462 0.5312
vn 0.1393 0.8592 0.4924
vn 0.3266 0.8494 0.4146
vn 0.4874 0.8417 0.2325
usemtl PlowedDirt
s 1
f 8/1/1 2/2/2 1/3/3
f 8/1/1 21/4/4 5/5/5
f 10/6/6 6/7/2 9/8/7
f 10/6/6 3/9/4 7/10/5
f 1/3/3 13/11/8 8/1/1
f 13/11/8 14/12/9 8/1/1
f 14/12/9 11/13/10 8/1/1
f 11/13/10 16/14/11 8/1/1
f 16/14/11 15/15/12 8/1/1
f 15/15/12 22/16/13 8/1/1
f 9/8/7 17/17/14 10/6/6
f 17/17/14 18/18/15 10/6/6
f 18/18/15 12/19/16 10/6/6
f 12/19/16 20/20/17 10/6/6
f 20/20/17 19/21/18 10/6/6
f 19/21/18 4/22/19 10/6/6
f 8/1/1 5/5/5 2/2/2
f 8/1/1 22/16/13 21/4/4
f 10/6/6 7/10/5 6/7/2
f 10/6/6 4/22/19 3/9/4
o PlowedRowStart.002_Plane.010
v 1.500000 0.000000 -1.300000
v 1.500000 0.000000 -0.500000
v 0.500000 0.000000 -0.500000
v 0.500000 0.000000 -1.278455
v 1.250000 0.200000 -0.500000
v 1.000000 0.000000 -0.500000
v 0.750000 0.200000 -0.500000
v 1.250000 0.200000 -1.100000
v 1.000000 0.000000 -1.300000
v 0.750000 0.200000 -1.100000
v 1.250000 0.000000 -1.461698
v 0.752394 0.000000 -1.461698
v 1.416667 0.000000 -1.366667
v 1.338121 0.000000 -1.399819
v 1.057001 0.000000 -1.393000
v 1.166667 0.000000 -1.433333
v 0.964545 0.000000 -1.381030
v 0.852485 0.000000 -1.404607
v 0.583334 0.000000 -1.366667
v 0.652304 0.000000 -1.450091
v 1.000000 0.000000 -0.500000
v 1.000000 0.000000 -1.300000
vt 0.750000 0.623896
vt 1.000000 0.000000
vt 1.000000 0.831862
vt 0.500000 0.000000
vt 0.750000 0.000000
vt 0.250000 0.623897
vt 0.500000 0.000000
vt 0.500000 0.831862
vt 0.000000 0.000000
vt 0.250000 0.000000
vt 0.916667 0.901184
vt 0.838121 0.935656
vt 0.750000 1.000000
vt 0.666667 0.970506
vt 0.557001 0.928565
vt 0.500000 0.831862
vt 0.464545 0.916119
vt 0.352485 0.940635
vt 0.252394 1.000000
vt 0.152304 0.987930
vt 0.083334 0.901184
vt 0.000001 0.809459
vn 0.0036 0.9898 -0.1425
vn 0.6247 0.7809 0.0000
vn 0.4740 0.8439 -0.2514
vn -0.6247 0.7809 -0.0000
vn -0.0000 1.0000 0.0000
vn -0.0025 0.9901 -0.1400
vn 0.5477 0.8248 -0.1402
vn 0.2753 0.8438 -0.4608
vn 0.2728 0.8354 -0.4771
vn 0.0562 0.8737 -0.4831
vn -0.1681 0.8633 -0.4759
vn -0.3091 0.8679 -0.3888
vn -0.5253 0.8325 -0.1759
vn 0.3086 0.8703 -0.3838
vn 0.1895 0.8488 -0.4936
vn 0.0849 0.8722 -0.4817
vn -0.2177 0.8724 -0.4376
vn -0.4165 0.8329 -0.3644
vn -0.5066 0.8327 -0.2235
usemtl PlowedDirt
s 1
f 30/23/20 24/24/21 23/25/22
f 30/23/20 43/26/23 27/27/24
f 32/28/25 28/29/21 31/30/26
f 32/28/25 25/31/23 29/32/24
f 23/25/22 35/33/27 30/23/20
f 35/33/27 36/34/28 30/23/20
f 36/34/28 33/35/29 30/23/20
f 33/35/29 38/36/30 30/23/20
f 38/36/30 37/37/31 30/23/20
f 37/37/31 44/38/32 30/23/20
f 31/30/26 39/39/33 32/28/25
f 39/39/33 40/40/34 32/28/25
f 40/40/34 34/41/35 32/28/25
f 34/41/35 42/42/36 32/28/25
f 42/42/36 41/43/37 32/28/25
f 41/43/37 26/44/38 32/28/25
f 30/23/20 27/27/24 24/24/21
f 30/23/20 44/38/32 43/26/23
f 32/28/25 29/32/24 28/29/21
f 32/28/25 26/44/38 25/31/23
o PlowedRowSegment.002_Plane.009
v 1.500000 0.000000 -0.500000
v 1.500000 0.000000 0.500000
v 0.500000 0.000000 0.500000
v 0.500000 0.000000 -0.500000
v 1.250000 0.200000 0.500000
v 1.000000 0.000000 0.500000
v 0.750000 0.200000 0.500000
v 1.250000 0.200000 -0.500000
v 1.000000 0.000000 -0.500000
v 0.750000 0.200000 -0.500000
v 1.000000 0.000000 0.500000
v 1.000000 0.000000 -0.500000
vt 1.000000 0.999999
vt 0.750000 0.000000
vt 1.000000 0.000000
vt 0.500000 1.000000
vt 0.750000 1.000000
vt 0.500000 1.000000
vt 0.250000 0.000000
vt 0.500000 0.000000
vt 0.000001 1.000000
vt 0.250000 1.000000
vt 0.500000 0.000000
vt 0.000000 0.000000
vn 0.6247 0.7809 0.0000
vn 0.0000 1.0000 -0.0000
vn -0.6247 0.7809 -0.0000
usemtl PlowedDirt
s 1
f 45/45/39 49/46/40 46/47/39
f 56/48/41 49/46/40 52/49/40
f 53/50/39 51/51/40 50/52/39
f 48/53/41 51/51/40 54/54/40
f 45/45/39 52/49/40 49/46/40
f 56/48/41 55/55/41 49/46/40
f 53/50/39 54/54/40 51/51/40
f 48/53/41 47/56/41 51/51/40
o PlowedRowSegment.001_Plane.009
v -0.500000 0.000000 -0.500000
v -0.500000 0.000000 0.500000
v -1.500000 0.000000 0.500000
v -1.500000 0.000000 -0.500000
v -0.750000 0.200000 0.500000
v -1.000000 0.000000 0.500000
v -1.250000 0.200000 0.500000
v -0.750000 0.200000 -0.500000
v -1.000000 0.000000 -0.500000
v -1.250000 0.200000 -0.500000
v -1.000000 0.000000 0.500000
v -1.000000 0.000000 -0.500000
vt 1.000000 0.999999
vt 0.750000 0.000000
vt 1.000000 0.000000
vt 0.500000 1.000000
vt 0.750000 1.000000
vt 0.500000 1.000000
vt 0.250000 0.000000
vt 0.500000 0.000000
vt 0.000001 1.000000
vt 0.250000 1.000000
vt 0.500000 0.000000
vt 0.000000 0.000000
vn 0.6247 0.7809 0.0000
vn -0.0000 1.0000 -0.0000
vn -0.6247 0.7809 -0.0000
usemtl PlowedDirt
s 1
f 57/57/42 61/58/43 58/59/42
f 68/60/44 61/58/43 64/61/43
f 65/62/42 63/63/43 62/64/42
f 60/65/44 63/63/43 66/66/43
f 57/57/42 64/61/43 61/58/43
f 68/60/44 67/67/44 61/58/43
f 65/62/42 66/66/43 63/63/43
f 60/65/44 59/68/44 63/63/43
o PlowedRowStart.001_Plane.010
v -0.500000 0.000000 -1.300000
v -0.500000 0.000000 -0.500000
v -1.500000 0.000000 -0.500000
v -1.500000 0.000000 -1.278455
v -0.750000 0.200000 -0.500000
v -1.000000 0.000000 -0.500000
v -1.250000 0.200000 -0.500000
v -0.750000 0.200000 -1.100000
v -1.000000 0.000000 -1.300000
v -1.250000 0.200000 -1.100000
v -0.750000 0.000000 -1.461698
v -1.247606 0.000000 -1.461698
v -0.583333 0.000000 -1.366667
v -0.661879 0.000000 -1.399819
v -0.942999 0.000000 -1.393000
v -0.833333 0.000000 -1.433333
v -1.035455 0.000000 -1.381030
v -1.147515 0.000000 -1.404607
v -1.416666 0.000000 -1.366667
v -1.347696 0.000000 -1.450091
v -1.000000 0.000000 -0.500000
v -1.000000 0.000000 -1.300000
vt 0.750000 0.623896
vt 1.000000 0.000000
vt 1.000000 0.831862
vt 0.500000 0.000000
vt 0.750000 0.000000
vt 0.250000 0.623897
vt 0.500000 0.000000
vt 0.500000 0.831862
vt 0.000000 0.000000
vt 0.250000 0.000000
vt 0.916667 0.901184
vt 0.838121 0.935656
vt 0.750000 1.000000
vt 0.666667 0.970506
vt 0.557001 0.928565
vt 0.500000 0.831862
vt 0.464545 0.916119
vt 0.352485 0.940635
vt 0.252394 1.000000
vt 0.152304 0.987930
vt 0.083334 0.901184
vt 0.000001 0.809459
vn 0.0036 0.9898 -0.1425
vn 0.6247 0.7809 0.0000
vn 0.4740 0.8439 -0.2514
vn -0.6247 0.7809 -0.0000
vn -0.0000 1.0000 -0.0000
vn -0.0025 0.9901 -0.1400
vn 0.5477 0.8248 -0.1402
vn 0.2753 0.8438 -0.4608
vn 0.2728 0.8354 -0.4771
vn 0.0562 0.8737 -0.4831
vn -0.1681 0.8633 -0.4759
vn -0.3091 0.8679 -0.3888
vn -0.5253 0.8325 -0.1759
vn 0.3086 0.8703 -0.3838
vn 0.1895 0.8488 -0.4936
vn 0.0849 0.8722 -0.4817
vn -0.2177 0.8724 -0.4376
vn -0.4165 0.8329 -0.3644
vn -0.5066 0.8327 -0.2235
usemtl PlowedDirt
s 1
f 76/69/45 70/70/46 69/71/47
f 76/69/45 89/72/48 73/73/49
f 78/74/50 74/75/46 77/76/51
f 78/74/50 71/77/48 75/78/49
f 69/71/47 81/79/52 76/69/45
f 81/79/52 82/80/53 76/69/45
f 82/80/53 79/81/54 76/69/45
f 79/81/54 84/82/55 76/69/45
f 84/82/55 83/83/56 76/69/45
f 83/83/56 90/84/57 76/69/45
f 77/76/51 85/85/58 78/74/50
f 85/85/58 86/86/59 78/74/50
f 86/86/59 80/87/60 78/74/50
f 80/87/60 88/88/61 78/74/50
f 88/88/61 87/89/62 78/74/50
f 87/89/62 72/90/63 78/74/50
f 76/69/45 73/73/49 70/70/46
f 76/69/45 90/84/57 89/72/48
f 78/74/50 75/78/49 74/75/46
f 78/74/50 72/90/63 71/77/48
o PlowedRowEnd.001_Plane.011
v -1.500000 0.000000 1.300000
v -1.500000 0.000000 0.500000
v -0.500000 0.000000 0.500000
v -0.500000 0.000000 1.300000
v -1.250000 0.200000 0.500000
v -1.000000 0.000000 0.500000
v -0.750000 0.200000 0.500000
v -1.250000 0.200000 1.100000
v -1.000000 0.000000 1.333515
v -0.750000 0.200000 1.100000
v -1.242818 0.000000 1.478455
v -0.750000 0.000000 1.418608
v -1.457363 0.000000 1.402575
v -1.333333 0.000000 1.433333
v -1.083333 0.000000 1.366667
v -1.142728 0.000000 1.454878
v -0.947787 0.000000 1.395393
v -0.833333 0.000000 1.433334
v -0.571364 0.000000 1.369061
v -0.652304 0.000000 1.421364
v -1.000000 0.000000 0.500000
v -1.000000 0.000000 1.333515
vt 0.250000 0.386788
vt 0.000000 1.000000
vt 0.000000 0.182385
vt 0.500000 1.000000
vt 0.250000 1.000000
vt 0.750000 0.386788
vt 0.500000 1.000000
vt 0.500000 0.148132
vt 1.000000 1.000000
vt 0.750000 1.000000
vt 0.042637 0.077551
vt 0.166667 0.046115
vt 0.257182 0.000000
vt 0.357272 0.024096
vt 0.416667 0.114250
vt 0.500000 0.148132
vt 0.552213 0.084891
vt 0.666666 0.046115
vt 0.750000 0.061165
vt 0.847696 0.058348
vt 0.928636 0.111803
vt 1.000000 0.182384
vn 0.0015 0.9914 0.1308
vn -0.6247 0.7809 0.0000
vn -0.5508 0.8236 0.1351
vn 0.6247 0.7809 0.0000
vn 0.0000 1.0000 0.0000
vn 0.0033 0.9899 0.1420
vn -0.4836 0.8497 0.2100
vn -0.3056 0.8772 0.3704
vn -0.1780 0.8628 0.4732
vn -0.0447 0.8829 0.4674
vn 0.2573 0.8730 0.4143
vn 0.3496 0.8412 0.4124
vn 0.4103 0.8616 0.2987
vn -0.2746 0.8715 0.4062
vn -0.0466 0.8617 0.5053
vn 0.0414 0.8462 0.5312
vn 0.1393 0.8592 0.4924
vn 0.3266 0.8494 0.4146
vn 0.4874 0.8417 0.2325
usemtl PlowedDirt
s 1
f 98/91/64 92/92/65 91/93/66
f 98/91/64 111/94/67 95/95/68
f 100/96/69 96/97/65 99/98/70
f 100/96/69 93/99/67 97/100/68
f 91/93/66 103/101/71 98/91/64
f 103/101/71 104/102/72 98/91/64
f 104/102/72 101/103/73 98/91/64
f 101/103/73 106/104/74 98/91/64
f 106/104/74 105/105/75 98/91/64
f 105/105/75 112/106/76 98/91/64
f 99/98/70 107/107/77 100/96/69
f 107/107/77 108/108/78 100/96/69
f 108/108/78 102/109/79 100/96/69
f 102/109/79 110/110/80 100/96/69
f 110/110/80 109/111/81 100/96/69
f 109/111/81 94/112/82 100/96/69
f 98/91/64 95/95/68 92/92/65
f 98/91/64 112/106/76 111/94/67
f 100/96/69 97/100/68 96/97/65
f 100/96/69 94/112/82 93/99/67
o PlowedRowEnd_Plane.011
v -0.500000 0.000000 1.300000
v -0.500000 0.000000 0.500000
v 0.500000 0.000000 0.500000
v 0.500000 0.000000 1.300000
v -0.250000 0.200000 0.500000
v -0.000000 0.000000 0.500000
v 0.250000 0.200000 0.500000
v -0.250000 0.200000 1.100000
v -0.000000 0.000000 1.333515
v 0.250000 0.200000 1.100000
v -0.242818 0.000000 1.478455
v 0.250000 0.000000 1.418608
v -0.457363 0.000000 1.402575
v -0.333333 0.000000 1.433333
v -0.083333 0.000000 1.366667
v -0.142728 0.000000 1.454878
v 0.052213 0.000000 1.395393
v 0.166667 0.000000 1.433334
v 0.428636 0.000000 1.369061
v 0.347696 0.000000 1.421364
v -0.000000 0.000000 0.500000
v -0.000000 0.000000 1.333515
vt 0.250000 0.386788
vt 0.000000 1.000000
vt 0.000000 0.182385
vt 0.500000 1.000000
vt 0.250000 1.000000
vt 0.750000 0.386788
vt 0.500000 1.000000
vt 0.500000 0.148132
vt 1.000000 1.000000
vt 0.750000 1.000000
vt 0.042637 0.077551
vt 0.166667 0.046115
vt 0.257182 0.000000
vt 0.357272 0.024096
vt 0.416667 0.114250
vt 0.500000 0.148132
vt 0.552213 0.084891
vt 0.666666 0.046115
vt 0.750000 0.061165
vt 0.847696 0.058348
vt 0.928636 0.111803
vt 1.000000 0.182384
vn 0.0015 0.9914 0.1308
vn -0.6247 0.7809 0.0000
vn -0.5508 0.8236 0.1351
vn 0.6247 0.7809 0.0000
vn 0.0000 1.0000 0.0000
vn 0.0033 0.9899 0.1420
vn -0.4836 0.8497 0.2100
vn -0.3056 0.8772 0.3704
vn -0.1780 0.8628 0.4732
vn -0.0447 0.8829 0.4674
vn 0.2573 0.8730 0.4143
vn 0.3496 0.8412 0.4124
vn 0.4103 0.8616 0.2987
vn -0.2746 0.8715 0.4062
vn -0.0466 0.8617 0.5053
vn 0.0414 0.8462 0.5312
vn 0.1393 0.8592 0.4924
vn 0.3266 0.8494 0.4146
vn 0.4874 0.8417 0.2325
usemtl PlowedDirt
s 1
f 120/113/83 114/114/84 113/115/85
f 120/113/83 133/116/86 117/117/87
f 122/118/88 118/119/84 121/120/89
f 122/118/88 115/121/86 119/122/87
f 113/115/85 125/123/90 120/113/83
f 125/123/90 126/124/91 120/113/83
f 126/124/91 123/125/92 120/113/83
f 123/125/92 128/126/93 120/113/83
f 128/126/93 127/127/94 120/113/83
f 127/127/94 134/128/95 120/113/83
f 121/120/89 129/129/96 122/118/88
f 129/129/96 130/130/97 122/118/88
f 130/130/97 124/131/98 122/118/88
f 124/131/98 132/132/99 122/118/88
f 132/132/99 131/133/100 122/118/88
f 131/133/100 116/134/101 122/118/88
f 120/113/83 117/117/87 114/114/84
f 120/113/83 134/128/95 133/116/86
f 122/118/88 119/122/87 118/119/84
f 122/118/88 116/134/101 115/121/86
o PlowedRowStart_Plane.010
v 0.500000 0.000000 -1.300000
v 0.500000 0.000000 -0.500000
v -0.500000 0.000000 -0.500000
v -0.500000 0.000000 -1.278455
v 0.250000 0.200000 -0.500000
v -0.000000 0.000000 -0.500000
v -0.250000 0.200000 -0.500000
v 0.250000 0.200000 -1.100000
v 0.000000 0.000000 -1.300000
v -0.250000 0.200000 -1.100000
v 0.250000 0.000000 -1.461698
v -0.247606 0.000000 -1.461698
v 0.416667 0.000000 -1.366667
v 0.338121 0.000000 -1.399819
v 0.057001 0.000000 -1.393000
v 0.166667 0.000000 -1.433333
v -0.035455 0.000000 -1.381030
v -0.147515 0.000000 -1.404607
v -0.416666 0.000000 -1.366667
v -0.347696 0.000000 -1.450091
v -0.000000 0.000000 -0.500000
v 0.000000 0.000000 -1.300000
vt 0.750000 0.623896
vt 1.000000 0.000000
vt 1.000000 0.831862
vt 0.500000 0.000000
vt 0.750000 0.000000
vt 0.250000 0.623897
vt 0.500000 0.000000
vt 0.500000 0.831862
vt 0.000000 0.000000
vt 0.250000 0.000000
vt 0.916667 0.901184
vt 0.838121 0.935656
vt 0.750000 1.000000
vt 0.666667 0.970506
vt 0.557001 0.928565
vt 0.500000 0.831862
vt 0.464545 0.916119
vt 0.352485 0.940635
vt 0.252394 1.000000
vt 0.152304 0.987930
vt 0.083334 0.901184
vt 0.000001 0.809459
vn 0.0036 0.9898 -0.1425
vn 0.6247 0.7809 0.0000
vn 0.4740 0.8439 -0.2514
vn -0.6247 0.7809 -0.0000
vn -0.0000 1.0000 -0.0000
vn -0.0025 0.9901 -0.1400
vn 0.5477 0.8248 -0.1402
vn 0.2753 0.8438 -0.4608
vn 0.2728 0.8354 -0.4771
vn 0.0562 0.8737 -0.4831
vn -0.1681 0.8633 -0.4759
vn -0.3091 0.8679 -0.3888
vn -0.5253 0.8325 -0.1759
vn 0.3086 0.8703 -0.3838
vn 0.1895 0.8488 -0.4936
vn 0.0849 0.8722 -0.4817
vn -0.2177 0.8724 -0.4376
vn -0.4165 0.8329 -0.3644
vn -0.5066 0.8327 -0.2235
usemtl PlowedDirt
s 1
f 142/135/102 136/136/103 135/137/104
f 142/135/102 155/138/105 139/139/106
f 144/140/107 140/141/103 143/142/108
f 144/140/107 137/143/105 141/144/106
f 135/137/104 147/145/109 142/135/102
f 147/145/109 148/146/110 142/135/102
f 148/146/110 145/147/111 142/135/102
f 145/147/111 150/148/112 142/135/102
f 150/148/112 149/149/113 142/135/102
f 149/149/113 156/150/114 142/135/102
f 143/142/108 151/151/115 144/140/107
f 151/151/115 152/152/116 144/140/107
f 152/152/116 146/153/117 144/140/107
f 146/153/117 154/154/118 144/140/107
f 154/154/118 153/155/119 144/140/107
f 153/155/119 138/156/120 144/140/107
f 142/135/102 139/139/106 136/136/103
f 142/135/102 156/150/114 155/138/105
f 144/140/107 141/144/106 140/141/103
f 144/140/107 138/156/120 137/143/105
o PlowedRowSegment_Plane.009
v 0.500000 0.000000 -0.500000
v 0.500000 0.000000 0.500000
v -0.500000 0.000000 0.500000
v -0.500000 0.000000 -0.500000
v 0.250000 0.200000 0.500000
v -0.000000 0.000000 0.500000
v -0.250000 0.200000 0.500000
v 0.250000 0.200000 -0.500000
v 0.000000 0.000000 -0.500000
v -0.250000 0.200000 -0.500000
v -0.000000 0.000000 0.500000
v 0.000000 0.000000 -0.500000
vt 1.000000 0.999999
vt 0.750000 0.000000
vt 1.000000 0.000000
vt 0.500000 1.000000
vt 0.750000 1.000000
vt 0.500000 1.000000
vt 0.250000 0.000000
vt 0.500000 0.000000
vt 0.000001 1.000000
vt 0.250000 1.000000
vt 0.500000 0.000000
vt 0.000000 0.000000
vn 0.6247 0.7809 0.0000
vn 0.0000 1.0000 -0.0000
vn -0.6247 0.7809 -0.0000
usemtl PlowedDirt
s 1
f 157/157/121 161/158/122 158/159/121
f 168/160/123 161/158/122 164/161/122
f 165/162/121 163/163/122 162/164/121
f 160/165/123 163/163/122 166/166/122
f 157/157/121 164/161/122 161/158/122
f 168/160/123 167/167/123 161/158/122
f 165/162/121 166/166/122 163/163/122
f 160/165/123 159/168/123 163/163/122
